<svg viewBox="0 0 16 16"><path fill="#0071A1" d="M14.3719196,0 C15.0048084,0 15.5200005,0.500965042 15.5200005,1.11919557 L15.5200005,14.4003738 C15.5200005,15.0186043 15.0048084,15.5204316 14.3719196,15.5204316 L1.14463183,15.5204316 C0.513036488,15.5204316 0,15.0186043 0,14.4003738 L0,1.11919557 C0,0.500965042 0.513036488,0 1.14463183,0 L14.3719196,0 Z M3.45243378,2.13664608 C2.71305766,2.13664608 2.11681442,2.73461382 2.11681442,3.4714032 C2.11681442,4.2086237 2.71305766,4.80659144 3.45243378,4.80659144 C4.18879203,4.80659144 4.78632865,4.2086237 4.78632865,3.4714032 C4.78632865,2.73461382 4.18879203,2.13664608 3.45243378,2.13664608 Z M2.29961061,13.2251322 L4.60396358,13.2251322 L4.60396358,5.81843735 L2.29961061,5.81843735 L2.29961061,13.2251322 Z M6.04779484,5.81843735 L6.04779484,13.2251322 L8.34697433,13.2251322 L8.34697433,9.56187922 C8.34697433,8.59530123 8.52977052,7.65933299 9.72786162,7.65933299 C10.9091389,7.65933299 10.9237971,8.76430149 10.9237971,9.6230987 L10.9237971,13.2251322 L13.2255633,13.2251322 L13.2255633,9.16309036 C13.2255633,7.16828377 12.7948713,5.63477891 10.4637887,5.63477891 C9.34416206,5.63477891 8.59314562,6.2486982 8.28618597,6.83114551 L8.25428286,6.83114551 L8.25428286,5.81843735 L6.04779484,5.81843735 Z"/></svg>